# xmcd
#
# Track frame offsets: 
#        150
#        11475
#        50231
#        69525
#        76162
#        107325
#        117956
#        141225
#        150281
#        189450
#
# Disc length: 2609 seconds
#
# Revision: 0
# Processed by: cddbd v1.5.2PL0 Copyright (c) Steve Scherf et al.
# Submitted via: ExactAudioCopyFreeDBPlugin 1.0
#
DISCID=790a2f0a
DTITLE=Numenorean - Adore
DYEAR=2019
DGENRE=post black metal
TTITLE0=Nocebo
TTITLE1=Portrait of Pieces
TTITLE2=Horizon
TTITLE3=And Nothing Was the Same
TTITLE4=Regret
TTITLE5=Stay
TTITLE6=Coma
TTITLE7=Alone
TTITLE8=Adore
TTITLE9=DDHS
EXTD=
EXTT0=
EXTT1=
EXTT2=
EXTT3=
EXTT4=
EXTT5=
EXTT6=
EXTT7=
EXTT8=
EXTT9=
PLAYORDER=
